# xmcd CD database file
#
# Track frame offsets:
#	150
#	24292
#	44797
#	63490
#	85775
#	113717
#	137145
#	162500
#	189210
#	207115
#
# Disc length: 3053 seconds
#
# Revision: 0
# Processed by: cddbd v1.5.2PL0 Copyright (c) Steve Scherf et al.
# Submitted via: CDex 1.70beta2
#
DISCID=840beb0a
DTITLE=上田正樹 - 家を出る少年だった頃
DYEAR=1991
DGENRE=Blues
TTITLE0=1966
TTITLE1=家を出る少年だった頃
TTITLE2=DANCIN' WITH MY BABY
TTITLE3=HOT FIELD
TTITLE4=MY VACATION
TTITLE5=MY LOVE'S FOR YOU
TTITLE6=SILENCE LOVE
TTITLE7=DON'T TOUCH MY MUSTACHE
TTITLE8=RISE AND FALL
TTITLE9=OSAKA ON MY MIND
EXTD=YEAR: 1991
EXTT0=
EXTT1=
EXTT2=
EXTT3=
EXTT4=
EXTT5=
EXTT6=
EXTT7=
EXTT8=
EXTT9=
PLAYORDER=
